<svg width="126" height="42" viewBox="0 0 126 42" fill="none" xmlns="http://www.w3.org/2000/svg">
<rect width="126" height="42" rx="21" fill="#CEEFDF"/>
<g clip-path="url(#clip0_1701_6648)">
<path d="M16.1665 21L20.3332 25.1667L28.6665 16.8333" stroke="#0AAF60" stroke-width="1.5" stroke-linecap="round" stroke-linejoin="round"/>
</g>
<path d="M47.91 22.5H49.8C49.744 22.7613 49.66 23.032 49.548 23.312C49.4453 23.592 49.2727 23.9093 49.03 24.264C48.7967 24.6093 48.526 24.9173 48.218 25.188C47.91 25.4587 47.5087 25.6873 47.014 25.874C46.5193 26.0513 45.978 26.14 45.39 26.14C44.046 26.14 42.9167 25.664 42.002 24.712C41.0873 23.76 40.63 22.556 40.63 21.1C40.63 19.644 41.0873 18.44 42.002 17.488C42.9167 16.536 44.046 16.06 45.39 16.06C45.9407 16.06 46.4493 16.144 46.916 16.312C47.392 16.4707 47.7887 16.676 48.106 16.928C48.4233 17.18 48.7033 17.474 48.946 17.81C49.1887 18.1367 49.3753 18.4493 49.506 18.748C49.6367 19.0467 49.7347 19.3407 49.8 19.63H47.91C47.7233 19.1447 47.42 18.72 47 18.356C46.5893 17.992 46.0527 17.81 45.39 17.81C44.5313 17.81 43.8267 18.1133 43.276 18.72C42.7253 19.3173 42.45 20.1107 42.45 21.1C42.45 22.0893 42.7253 22.8873 43.276 23.494C43.8267 24.0913 44.5313 24.39 45.39 24.39C46.062 24.39 46.6033 24.2033 47.014 23.83C47.434 23.4567 47.7327 23.0133 47.91 22.5ZM53.1509 23.942C53.5149 24.334 53.9629 24.53 54.4949 24.53C55.0269 24.53 55.4749 24.334 55.8389 23.942C56.2029 23.55 56.3849 23.046 56.3849 22.43C56.3849 21.814 56.2029 21.31 55.8389 20.918C55.4749 20.526 55.0269 20.33 54.4949 20.33C53.9629 20.33 53.5149 20.526 53.1509 20.918C52.7869 21.31 52.6049 21.814 52.6049 22.43C52.6049 23.046 52.7869 23.55 53.1509 23.942ZM51.8769 19.77C52.5676 19.07 53.4403 18.72 54.4949 18.72C55.5496 18.72 56.4176 19.07 57.0989 19.77C57.7896 20.4607 58.1349 21.3473 58.1349 22.43C58.1349 23.5127 57.7896 24.404 57.0989 25.104C56.4176 25.7947 55.5496 26.14 54.4949 26.14C53.4403 26.14 52.5676 25.7947 51.8769 25.104C51.1956 24.404 50.8549 23.5127 50.8549 22.43C50.8549 21.3473 51.1956 20.4607 51.8769 19.77ZM59.5995 26V18.86H61.2095L61.3495 19.56H61.4195C61.5315 19.42 61.6901 19.28 61.8955 19.14C62.3248 18.86 62.8195 18.72 63.3795 18.72C64.1915 18.72 64.8588 19 65.3815 19.56C65.9135 20.1107 66.1795 20.834 66.1795 21.73V26H64.4295V21.87C64.4295 21.4127 64.2848 21.044 63.9955 20.764C63.7155 20.4747 63.3468 20.33 62.8895 20.33C62.4321 20.33 62.0588 20.4747 61.7695 20.764C61.4895 21.044 61.3495 21.4127 61.3495 21.87V26H59.5995ZM67.9256 26V18.86H69.5356L69.6756 19.56H69.7456C69.8576 19.42 70.0163 19.28 70.2216 19.14C70.651 18.86 71.1456 18.72 71.7056 18.72C72.5176 18.72 73.185 19 73.7076 19.56C74.2396 20.1107 74.5056 20.834 74.5056 21.73V26H72.7556V21.87C72.7556 21.4127 72.611 21.044 72.3216 20.764C72.0416 20.4747 71.673 20.33 71.2156 20.33C70.7583 20.33 70.385 20.4747 70.0956 20.764C69.8156 21.044 69.6756 21.4127 69.6756 21.87V26H67.9256ZM77.6518 21.8H81.2918C81.2078 21.324 81.0118 20.9367 80.7038 20.638C80.4051 20.3393 80.0178 20.19 79.5418 20.19C79.0378 20.19 78.6225 20.3393 78.2958 20.638C77.9785 20.9273 77.7638 21.3147 77.6518 21.8ZM81.0118 23.9H82.8318C82.7851 24.0773 82.6918 24.278 82.5518 24.502C82.4211 24.7167 82.2298 24.9593 81.9778 25.23C81.7351 25.4913 81.3991 25.7107 80.9698 25.888C80.5405 26.056 80.0645 26.14 79.5418 26.14C78.4871 26.14 77.6145 25.7947 76.9238 25.104C76.2425 24.404 75.9018 23.5127 75.9018 22.43C75.9018 21.3473 76.2425 20.4607 76.9238 19.77C77.6145 19.07 78.4871 18.72 79.5418 18.72C80.5218 18.72 81.3478 19.0653 82.0198 19.756C82.7011 20.4373 83.0418 21.282 83.0418 22.29C83.0418 22.374 83.0278 22.542 82.9998 22.794L82.9718 22.99H77.6518C77.7265 23.494 77.9365 23.9 78.2818 24.208C78.6271 24.516 79.0471 24.67 79.5418 24.67C79.9151 24.67 80.2325 24.5907 80.4938 24.432C80.7551 24.264 80.9278 24.0867 81.0118 23.9ZM89.4096 23.34H91.1596C91.0943 23.6573 90.9869 23.9653 90.8376 24.264C90.6976 24.5627 90.5016 24.8613 90.2496 25.16C89.9976 25.4493 89.6569 25.6873 89.2276 25.874C88.8076 26.0513 88.3316 26.14 87.7996 26.14C86.7449 26.14 85.8723 25.7947 85.1816 25.104C84.5003 24.404 84.1596 23.5127 84.1596 22.43C84.1596 21.3473 84.5003 20.4607 85.1816 19.77C85.8723 19.07 86.7449 18.72 87.7996 18.72C88.3316 18.72 88.8076 18.8133 89.2276 19C89.6569 19.1773 89.9976 19.4107 90.2496 19.7C90.5016 19.9893 90.6976 20.2787 90.8376 20.568C90.9869 20.8573 91.0943 21.1513 91.1596 21.45H89.4096C89.1296 20.7033 88.5929 20.33 87.7996 20.33C87.2676 20.33 86.8196 20.526 86.4556 20.918C86.0916 21.31 85.9096 21.814 85.9096 22.43C85.9096 23.046 86.0916 23.55 86.4556 23.942C86.8196 24.334 87.2676 24.53 87.7996 24.53C88.6209 24.53 89.1576 24.1333 89.4096 23.34ZM93.1223 24.32V20.54H92.0023V18.86H93.1223V16.83H94.8723V18.86H96.4823V20.54H94.8723V23.97C94.8723 24.2967 95.0357 24.46 95.3623 24.46H96.4823V26H94.9423C94.3543 26 93.9017 25.8553 93.5843 25.566C93.2763 25.2673 93.1223 24.852 93.1223 24.32ZM99.144 21.8H102.784C102.7 21.324 102.504 20.9367 102.196 20.638C101.897 20.3393 101.51 20.19 101.034 20.19C100.53 20.19 100.115 20.3393 99.788 20.638C99.4707 20.9273 99.256 21.3147 99.144 21.8ZM102.504 23.9H104.324C104.277 24.0773 104.184 24.278 104.044 24.502C103.913 24.7167 103.722 24.9593 103.47 25.23C103.227 25.4913 102.891 25.7107 102.462 25.888C102.033 26.056 101.557 26.14 101.034 26.14C99.9793 26.14 99.1067 25.7947 98.416 25.104C97.7347 24.404 97.394 23.5127 97.394 22.43C97.394 21.3473 97.7347 20.4607 98.416 19.77C99.1067 19.07 99.9793 18.72 101.034 18.72C102.014 18.72 102.84 19.0653 103.512 19.756C104.193 20.4373 104.534 21.282 104.534 22.29C104.534 22.374 104.52 22.542 104.492 22.794L104.464 22.99H99.144C99.2187 23.494 99.4287 23.9 99.774 24.208C100.119 24.516 100.539 24.67 101.034 24.67C101.407 24.67 101.725 24.5907 101.986 24.432C102.247 24.264 102.42 24.0867 102.504 23.9ZM107.906 23.984C108.242 24.348 108.68 24.53 109.222 24.53C109.763 24.53 110.202 24.348 110.538 23.984C110.874 23.6107 111.042 23.0927 111.042 22.43C111.042 21.7673 110.874 21.254 110.538 20.89C110.202 20.5167 109.763 20.33 109.222 20.33C108.68 20.33 108.242 20.5167 107.906 20.89C107.57 21.254 107.402 21.7673 107.402 22.43C107.402 23.0927 107.57 23.6107 107.906 23.984ZM111.252 26L111.112 25.23H111.042C110.902 25.4073 110.734 25.5613 110.538 25.692C110.09 25.9907 109.558 26.14 108.942 26.14C108.008 26.14 107.224 25.7993 106.59 25.118C105.964 24.4273 105.652 23.5313 105.652 22.43C105.652 21.3287 105.964 20.4373 106.59 19.756C107.224 19.0653 108.008 18.72 108.942 18.72C109.502 18.72 110.015 18.874 110.482 19.182C110.678 19.3127 110.841 19.462 110.972 19.63H111.042V16.2H112.792V26H111.252Z" fill="#0AAF60"/>
<defs>
<clipPath id="clip0_1701_6648">
<rect width="20" height="20" fill="white" transform="translate(12 11)"/>
</clipPath>
</defs>
</svg>
