<svg width="48" height="48" viewBox="0 0 48 48" fill="none" xmlns="http://www.w3.org/2000/svg">
<circle cx="24" cy="24" r="23.5" fill="white" stroke="#F4F4F5"/>
<path d="M19.0598 36.2849L19.5209 33.3784L18.4939 33.3548H13.5898L16.9979 11.9079C17.008 11.8424 17.0416 11.7827 17.0924 11.7396C17.1432 11.6966 17.2079 11.6731 17.2747 11.6735H25.5436C28.2887 11.6735 30.1832 12.2404 31.1723 13.3594C31.636 13.8844 31.9313 14.433 32.0741 15.0366C32.2239 15.6701 32.2266 16.4269 32.0803 17.3499L32.0697 17.4173V18.0087L32.5334 18.2695C32.8874 18.4475 33.2056 18.6882 33.4722 18.9799C33.8689 19.4287 34.1254 19.9992 34.2339 20.6755C34.3458 21.371 34.3088 22.1987 34.1254 23.1358C33.9139 24.2136 33.5718 25.1524 33.1099 25.9206C32.7023 26.6088 32.1543 27.2048 31.5011 27.6704C30.8875 28.1027 30.1585 28.4307 29.3342 28.6407C28.5356 28.8472 27.6249 28.9513 26.6261 28.9513H25.9826C25.5224 28.9513 25.0755 29.1158 24.7246 29.4107C24.3743 29.7086 24.1419 30.1204 24.0688 30.5725L24.0203 30.8341L23.2057 35.9568L23.1687 36.1449C23.159 36.2044 23.1423 36.2341 23.1176 36.2543C23.0937 36.2737 23.0638 36.2845 23.033 36.2849H19.0598Z" fill="#253B80"/>
<path d="M31.8318 17.0341C31.4836 16.9341 31.1294 16.8561 30.7713 16.8005C30.0637 16.6925 29.3486 16.6408 28.6327 16.6456H22.1515C21.9049 16.6454 21.6663 16.7328 21.4789 16.892C21.2915 17.0512 21.1677 17.2716 21.1298 17.5135L19.7511 26.1804L19.7114 26.4333C19.7544 26.1574 19.8954 25.9059 20.109 25.7242C20.3226 25.5425 20.5947 25.4428 20.8759 25.4429H23.302C28.0667 25.4429 31.7974 23.5225 32.8879 17.9667C32.9205 17.8022 32.9478 17.6421 32.9725 17.4855C32.6848 17.3358 32.3849 17.2102 32.076 17.1102C31.995 17.0835 31.9136 17.0581 31.8318 17.0341Z" fill="#222D65"/>
<path d="M21.1299 17.5135C21.1674 17.2715 21.2912 17.0509 21.4787 16.8918C21.6662 16.7327 21.9049 16.6456 22.1516 16.6464H28.6327C29.4005 16.6464 30.1172 16.6963 30.7713 16.8013C31.214 16.8703 31.6505 16.9736 32.0769 17.1101C32.3987 17.216 32.6975 17.3411 32.9734 17.4855C33.2978 15.432 32.9708 14.0339 31.8521 12.7679C30.6188 11.3742 28.3929 10.7775 25.5447 10.7775H17.2758C16.6939 10.7775 16.1976 11.1974 16.1077 11.7687L12.6635 33.4361C12.6475 33.5367 12.6536 33.6395 12.6814 33.7375C12.7092 33.8356 12.7581 33.9265 12.8247 34.004C12.8913 34.0814 12.9741 34.1437 13.0672 34.1864C13.1604 34.2292 13.2617 34.2514 13.3643 34.2515H18.4694L19.7511 26.1804L21.1299 17.5135Z" fill="#253B80"/>
<path d="M32.9724 17.4854C32.9477 17.6421 32.9195 17.8022 32.8878 17.9666C31.7973 23.5232 28.0666 25.4428 23.3019 25.4428H20.8758C20.2931 25.4428 19.8021 25.8628 19.7113 26.4332L18.4692 34.2515L18.1175 36.4676C18.1035 36.5556 18.1088 36.6454 18.1332 36.7311C18.1575 36.8167 18.2003 36.8962 18.2585 36.9638C18.3167 37.0315 18.389 37.0859 18.4705 37.1232C18.5519 37.1605 18.6405 37.1798 18.7302 37.1798H23.033C23.5425 37.1798 23.9754 36.8124 24.0556 36.3137L24.0979 36.0967L24.908 30.9942L24.96 30.7142C25.0394 30.2137 25.4731 29.8463 25.9826 29.8463H26.6262C30.795 29.8463 34.0585 28.1664 35.0123 23.3054C35.4108 21.2747 35.2045 19.5791 34.1502 18.3866C33.816 18.0177 33.4169 17.7123 32.9724 17.4854Z" fill="#179BD7"/>
</svg>
